<?xml version="1.0" standalone="no"?>
<!DOCTYPE svg PUBLIC "-//W3C//DTD SVG 20010904//EN"
 "http://www.w3.org/TR/2001/REC-SVG-20010904/DTD/svg10.dtd">
<svg version="1.0" xmlns="http://www.w3.org/2000/svg"
 width="541.000000pt" height="541.000000pt" viewBox="0 0 541.000000 541.000000"
 preserveAspectRatio="xMidYMid meet">
<metadata>
Created by potrace 1.14, written by Peter Selinger 2001-2017
</metadata>
<g transform="translate(0.000000,541.000000) scale(0.100000,-0.100000)"
fill="#000000" stroke="none">
<path d="M2687 5394 c-1 -1 -58 -4 -127 -8 -137 -7 -160 -10 -300 -33 -79 -13
-140 -26 -300 -67 -114 -30 -317 -109 -454 -178 -147 -74 -371 -217 -475 -303
-398 -330 -676 -713 -845 -1166 -38 -101 -101 -312 -110 -369 -3 -19 -12 -71
-20 -115 -37 -203 -49 -446 -32 -665 52 -678 354 -1304 852 -1768 86 -81 318
-262 379 -296 17 -9 53 -31 80 -48 257 -160 650 -302 950 -344 17 -2 40 -6 53
-8 153 -31 610 -27 792 7 14 2 45 8 70 12 25 4 70 13 100 20 30 8 66 16 80 19
47 9 198 56 244 76 26 11 47 19 49 19 17 -2 261 110 355 164 329 188 644 464
837 731 11 15 33 44 48 64 27 34 68 99 140 220 103 174 239 513 273 682 3 13
13 60 23 105 27 116 32 148 50 340 12 130 4 466 -14 565 -3 15 -12 74 -21 135
-3 17 -16 77 -30 135 -232 976 -997 1750 -1963 1989 -149 37 -179 43 -286 55
-33 4 -67 9 -75 11 -8 3 -69 7 -135 11 -170 9 -186 10 -188 8z"/>
</g>
</svg>
